<svg width="207" height="204" viewBox="0 0 207 204" fill="none" xmlns="http://www.w3.org/2000/svg">
<path d="M0 104.926H90.3023L6.68563 138.365L8.63902 143.064L92.6029 109.487L28.4853 172.366L32.1448 175.954L96.2614 113.076L62.0221 195.416L66.8143 197.333L100.912 115.331V203.889H106.088V115.332L140.185 197.333L144.977 195.417L110.738 113.076L174.856 175.954L178.516 172.366L114.398 109.487L198.36 143.065L200.314 138.366L116.697 104.926H207V99.8512H116.698L200.315 66.4129L198.361 61.7132L114.398 95.2907L178.515 32.4116L174.856 28.8234L110.739 91.7016L144.978 9.36172L140.186 7.44515L106.088 89.4465V0.888672H100.912V89.4456L66.8155 7.44473L62.0237 9.36089L96.2622 91.7021L32.1448 28.8234L28.4849 32.412L92.6025 95.2902L8.64004 61.712L6.68603 66.4116L90.3027 99.8512H0V104.926Z" fill="#D9A7A7"/>
</svg>
